<svg width="300" height="300" viewBox="0 0 300 300" fill="none" xmlns="http://www.w3.org/2000/svg">
<circle cx="150" cy="150" r="145" fill="#256EFF"/>
<path d="M211.2 184.4C211.2 192.4 209.133 199.133 205 204.6C200.867 209.933 195.267 214 188.2 216.8C181.267 219.6 173.667 221 165.4 221H96.8V79H172.8C179.467 79 185.2 80.8 190 84.4C194.933 87.8667 198.667 92.4 201.2 98C203.867 103.467 205.2 109.2 205.2 115.2C205.2 122 203.467 128.467 200 134.6C196.533 140.733 191.467 145.267 184.8 148.2C192.933 150.6 199.333 154.933 204 161.2C208.8 167.467 211.2 175.2 211.2 184.4ZM183.4 179.2C183.4 175.6 182.667 172.4 181.2 169.6C179.733 166.667 177.733 164.4 175.2 162.8C172.8 161.067 170 160.2 166.8 160.2H124.4V197.6H165.4C168.733 197.6 171.733 196.8 174.4 195.2C177.2 193.467 179.4 191.2 181 188.4C182.6 185.6 183.4 182.533 183.4 179.2ZM124.4 102.6V138.4H161.2C164.267 138.4 167.067 137.667 169.6 136.2C172.133 134.733 174.133 132.667 175.6 130C177.2 127.333 178 124.133 178 120.4C178 116.8 177.267 113.667 175.8 111C174.467 108.333 172.6 106.267 170.2 104.8C167.933 103.333 165.333 102.6 162.4 102.6H124.4Z" fill="#F5F5F5"/>
</svg>
