<svg width="21" height="21" viewBox="0 0 21 21" fill="none" xmlns="http://www.w3.org/2000/svg">
<path d="M10.9955 15.3796V8.16708L12.5865 9.75807L14.0007 8.34386L10.0056 4.34871L6.01041 8.34386L7.42462 9.75807L8.99793 8.18476V15.3619L10.9955 15.3796ZM17.0766 17.0766C16.0985 18.0548 14.9936 18.7884 13.7621 19.2775C12.5305 19.7666 11.2784 20.0111 10.0056 20.0111C8.73277 20.0111 7.4806 19.7666 6.24906 19.2775C5.01751 18.7884 3.91266 18.0548 2.93449 17.0766C1.95633 16.0985 1.22271 14.9936 0.733623 13.7621C0.244541 12.5305 0 11.2784 0 10.0056C0 8.73277 0.244541 7.4806 0.733623 6.24906C1.22271 5.01751 1.95633 3.91266 2.93449 2.93449C3.91266 1.95633 5.01751 1.22271 6.24906 0.733623C7.4806 0.244541 8.73277 0 10.0056 0C11.2784 0 12.5305 0.244541 13.7621 0.733623C14.9936 1.22271 16.0985 1.95633 17.0766 2.93449C18.0548 3.91266 18.7884 5.01751 19.2775 6.24906C19.7666 7.4806 20.0111 8.73277 20.0111 10.0056C20.0111 11.2784 19.7666 12.5305 19.2775 13.7621C18.7884 14.9936 18.0548 16.0985 17.0766 17.0766ZM15.6624 15.6624C17.2416 14.0832 18.0312 12.1976 18.0312 10.0056C18.0312 7.81353 17.2416 5.92791 15.6624 4.34871C14.0832 2.7695 12.1976 1.9799 10.0056 1.9799C7.81353 1.9799 5.92791 2.7695 4.34871 4.34871C2.7695 5.92791 1.9799 7.81353 1.9799 10.0056C1.9799 12.1976 2.7695 14.0832 4.34871 15.6624C5.92791 17.2416 7.81353 18.0312 10.0056 18.0312C12.1976 18.0312 14.0832 17.2416 15.6624 15.6624Z" fill="#E6E8E6"/>
</svg>
